<svg width="14" height="17" viewBox="0 0 14 17" fill="none" xmlns="http://www.w3.org/2000/svg">
<path d="M0.954389 9.73225L11.9031 16.2065C12.3614 16.4775 13.0505 16.6588 13.2932 16.185C13.3606 16.0535 13.3717 15.9104 13.345 15.7709C13.3028 15.5506 13.1334 15.3839 12.9611 15.2403L4.63392 8.30101L0.000228292 8.30101C0.000228259 9.06434 0.636336 9.57323 0.954389 9.73225Z" fill="#ADADAD" fill-opacity="1"/>
<path d="M0.954388 6.89763L11.9031 0.423364C12.3614 0.152372 13.0505 -0.0289419 13.2932 0.444914C13.3606 0.576417 13.3717 0.719511 13.345 0.858966C13.3028 1.07925 13.1334 1.24599 12.9611 1.38958L4.63392 8.32887L0.000227564 8.32887C0.000227597 7.56554 0.636335 7.05666 0.954388 6.89763Z" fill="#ADADAD" fill-opacity="1"/>
</svg>
