<svg width="14" height="17" viewBox="0 0 14 17" fill="none" xmlns="http://www.w3.org/2000/svg">
<path d="M0.954162 9.73274L11.9029 16.207C12.3612 16.478 13.0503 16.6593 13.293 16.1855C13.3604 16.054 13.3715 15.9109 13.3447 15.7714C13.3025 15.5511 13.1332 15.3844 12.9609 15.2408L4.63369 8.3015L1.31774e-06 8.3015C1.28437e-06 9.06483 0.636109 9.57371 0.954162 9.73274Z" fill="black"/>
<path d="M0.954452 6.89763L11.9032 0.423364C12.3615 0.152372 13.0506 -0.0289419 13.2933 0.444914C13.3607 0.576417 13.3718 0.719511 13.345 0.858966C13.3028 1.07925 13.1335 1.24599 12.9612 1.38958L4.63398 8.32887L0.00029146 8.32887C0.000291494 7.56554 0.636399 7.05666 0.954452 6.89763Z" fill="black"/>
</svg>
