<svg width="25" height="19" viewBox="0 0 25 19" fill="none" xmlns="http://www.w3.org/2000/svg">
<path d="M14.3451 17.6628L23.5884 2.03138C23.8593 1.5731 24.0072 0.969644 23.65 0.574843C23.369 0.264297 23.0078 0.227572 22.6761 0.331433C22.4621 0.398464 22.295 0.559252 22.1514 0.731555L12.3393 12.5062L12.3393 19C13.409 19 14.1222 18.1086 14.3451 17.6628Z" fill="black"/>
<path d="M10.3737 17.6628L1.1304 2.03138C0.859403 1.5731 0.711542 0.969644 1.06874 0.574843C1.3497 0.264297 1.71098 0.227572 2.04263 0.331433C2.25666 0.398464 2.42379 0.559252 2.56737 0.731555L12.3795 12.5062L12.3795 19C11.3097 19 10.5965 18.1086 10.3737 17.6628Z" fill="black"/>
</svg>
