<svg width="14" height="17" viewBox="0 0 14 17" fill="none" xmlns="http://www.w3.org/2000/svg">
<path d="M12.4042 6.89761L1.45545 0.423349C0.997175 0.152357 0.308051 -0.0289572 0.0653235 0.444899C-0.00203736 0.576402 -0.0131274 0.719496 0.0135972 0.858951C0.0558108 1.07923 0.225135 1.24598 0.397438 1.38956L8.72465 8.32886L13.3583 8.32885C13.3583 7.56553 12.7222 7.05664 12.4042 6.89761Z" fill="#EEEADD"/>
<path d="M12.404 9.73271L1.45529 16.207C0.997007 16.478 0.307883 16.6593 0.0651556 16.1854C-0.00220526 16.0539 -0.0132953 15.9108 0.0134293 15.7714C0.0556429 15.5511 0.224967 15.3843 0.39727 15.2408L8.72448 8.30147L13.3582 8.30147C13.3582 9.0648 12.7221 9.57368 12.404 9.73271Z" fill="#EEEADD"/>
</svg>
