<svg width="12" height="13" viewBox="0 0 12 13" fill="none" xmlns="http://www.w3.org/2000/svg">
<path d="M12 7.19962L11.9742 5.57212C10.1677 5.87555 8.69677 6.12381 6.52903 6.17898C8.10323 4.55148 9.29032 3.6136 10.7613 2.45504L9.67742 1.29648C8.59355 2.86881 7.71613 4.16529 6.21936 5.82038C6.27097 3.53085 6.47742 1.93093 6.76129 0H5.23871C5.52258 1.93093 5.72903 3.53085 5.78064 5.82038C4.28387 4.16529 3.38065 2.86881 2.29677 1.29648L1.2129 2.45504C2.73548 3.6136 3.87097 4.57907 5.47097 6.17898C3.27742 6.12381 1.83226 5.87555 0 5.57212V7.2272C1.80645 6.92377 3.30323 6.67551 5.44516 6.62034C3.87097 8.22025 2.68387 9.15813 1.2129 10.3443L2.29677 11.5028C3.38065 9.90292 4.28387 8.66161 5.78064 6.97894C5.72903 9.29606 5.52258 10.8684 5.23871 12.7993H6.76129C6.47742 10.8684 6.27097 9.29606 6.21936 6.95135C7.69032 8.63402 8.59355 9.9305 9.67742 11.5028L10.7613 10.3443C9.29032 9.18572 8.07742 8.24784 6.52903 6.64792C8.69677 6.70309 10.1935 6.89618 12 7.19962Z" fill="#EEEADD"/>
</svg>
