<svg width="17" height="14" viewBox="0 0 17 14" fill="none" xmlns="http://www.w3.org/2000/svg">
<path d="M6.89763 0.954145L0.423364 11.9029C0.152372 12.3611 -0.0289419 13.0503 0.444914 13.293C0.576417 13.3604 0.719511 13.3714 0.858966 13.3447C1.07925 13.3025 1.24599 13.1332 1.38958 12.9609L8.32887 4.63368L8.32887 -1.54843e-05C7.56554 -1.55511e-05 7.05666 0.636092 6.89763 0.954145Z" fill="#EEEADD"/>
<path d="M9.73225 0.954266L16.2065 11.903C16.4775 12.3613 16.6588 13.0504 16.185 13.2931C16.0535 13.3605 15.9104 13.3716 15.7709 13.3448C15.5506 13.3026 15.3839 13.1333 15.2403 12.961L8.30101 4.6338L8.30101 0.00010513C9.06434 0.000105196 9.57323 0.636213 9.73225 0.954266Z" fill="#EEEADD"/>
</svg>
