<svg width="14" height="17" viewBox="0 0 14 17" fill="none" xmlns="http://www.w3.org/2000/svg">
<path d="M0.954145 9.73273L11.9029 16.207C12.3611 16.478 13.0503 16.6593 13.293 16.1854C13.3604 16.0539 13.3714 15.9108 13.3447 15.7714C13.3025 15.5511 13.1332 15.3844 12.9609 15.2408L4.63368 8.30148L-1.58484e-05 8.30148C-1.58818e-05 9.06481 0.636092 9.5737 0.954145 9.73273Z" fill="#D3D3D3" fill-opacity="0.5"/>
<path d="M0.954449 6.89763L11.9032 0.423364C12.3615 0.152372 13.0506 -0.0289419 13.2933 0.444914C13.3607 0.576417 13.3718 0.719511 13.345 0.858966C13.3028 1.07925 13.1335 1.24599 12.9612 1.38958L4.63398 8.32887L0.000288599 8.32887C0.000288633 7.56554 0.636396 7.05666 0.954449 6.89763Z" fill="#D3D3D3" fill-opacity="0.5"/>
</svg>
