<svg width="15" height="18" viewBox="0 0 15 18" fill="none" xmlns="http://www.w3.org/2000/svg">
<path d="M13.0463 7.3073L2.09756 0.833032C1.63928 0.56204 0.950156 0.380726 0.707429 0.854582C0.640068 0.986085 0.628978 1.12918 0.655702 1.26863C0.697916 1.48891 0.86724 1.65566 1.03954 1.79925L9.36675 8.73854L14.0004 8.73854C14.0004 7.97521 13.3643 7.46632 13.0463 7.3073Z" fill="black" stroke="black"/>
<path d="M13.0461 10.1424L2.0974 16.6167C1.63912 16.8877 0.949996 17.069 0.707268 16.5951C0.639907 16.4636 0.628817 16.3205 0.655542 16.1811C0.697756 15.9608 0.86708 15.794 1.03938 15.6505L9.36659 8.71117L14.0003 8.71117C14.0003 9.4745 13.3642 9.98338 13.0461 10.1424Z" fill="black" stroke="black"/>
</svg>
