<svg width="19" height="24" viewBox="0 0 19 24" fill="none" xmlns="http://www.w3.org/2000/svg">
<path d="M1.61598 13.64L17.2474 22.8833C17.7057 23.1543 18.3092 23.3021 18.704 22.9449C19.0145 22.664 19.0512 22.3027 18.9474 21.971C18.8803 21.757 18.7196 21.5899 18.5473 21.4463L6.77264 11.6342L0.278779 11.6342C0.278779 12.704 1.17025 13.4171 1.61598 13.64Z" fill="black"/>
<path d="M1.61647 9.66664L17.2479 0.423364C17.7062 0.152372 18.3097 0.00451034 18.7045 0.361705C19.015 0.642671 19.0517 1.00395 18.9479 1.3356C18.8808 1.54963 18.72 1.71676 18.5477 1.86034L6.77313 11.6725L0.279266 11.6724C0.279266 10.6027 1.17073 9.88951 1.61647 9.66664Z" fill="black"/>
</svg>
