<svg width="43" height="43" viewBox="0 0 43 43" fill="none" xmlns="http://www.w3.org/2000/svg">
<circle cx="21.5" cy="21.5" r="21" transform="rotate(90 21.5 21.5)" stroke="black"/>
<path d="M18.6882 14.9672L11.4234 27.2529C11.1524 27.7112 10.9793 28.3643 11.4145 28.671C11.5937 28.7974 11.799 28.8163 11.9954 28.7699C12.2137 28.7183 12.3804 28.5523 12.524 28.38L20.2835 19.0685L20.2835 13.9037C19.4327 13.9037 18.8655 14.6127 18.6882 14.9672Z" fill="black"/>
<path d="M21.8479 14.9672L29.1128 27.2529C29.3838 27.7112 29.5568 28.3643 29.1217 28.671C28.9424 28.7974 28.7372 28.8163 28.5407 28.7699C28.3224 28.7183 28.1557 28.5523 28.0121 28.38L20.2526 19.0685L20.2526 13.9037C21.1034 13.9037 21.6706 14.6127 21.8479 14.9672Z" fill="black"/>
</svg>
