<svg width="19" height="16" viewBox="0 0 19 16" fill="none" xmlns="http://www.w3.org/2000/svg">
<path d="M7.68824 1.96719L0.423364 14.2529C0.152372 14.7112 -0.020671 15.3643 0.414474 15.671C0.593706 15.7974 0.798951 15.8163 0.995413 15.7699C1.21369 15.7183 1.38041 15.5523 1.52399 15.38L9.28354 6.06848L9.28354 0.903665C8.43271 0.903665 7.8655 1.61268 7.68824 1.96719Z" fill="black"/>
<path d="M10.8479 1.96719L18.1128 14.2529C18.3838 14.7112 18.5568 15.3643 18.1217 15.671C17.9424 15.7974 17.7372 15.8163 17.5407 15.7699C17.3224 15.7183 17.1557 15.5523 17.0121 15.38L9.25259 6.06848L9.25259 0.903666C10.1034 0.903666 10.6706 1.61268 10.8479 1.96719Z" fill="black"/>
</svg>
