<svg width="76" height="70" viewBox="0 0 76 70" fill="none" xmlns="http://www.w3.org/2000/svg">
<path d="M32.6281 69.3227C34.3304 69.3227 35.7104 67.9427 35.7104 66.2404C35.7104 64.5382 34.3304 63.1582 32.6281 63.1582C30.9259 63.1582 29.5459 64.5382 29.5459 66.2404C29.5459 67.9427 30.9259 69.3227 32.6281 69.3227Z" fill="#EEEADD"/>
<path d="M73.4465 12.297C70.9237 8.83477 66.6909 6.59698 62.4581 6.59698C58.8798 6.53364 55.7659 8.18032 52.5886 10.9987C48.0603 15.527 45.4847 17.8704 45.0097 23.3382C44.3658 31.3288 50.5936 38.38 58.4048 38.38C61.9304 38.4433 65.4559 36.9127 68.4537 33.9149C72.5704 29.7983 75.0299 27.7505 75.8532 22.6943C76.3282 19.2954 75.6843 15.527 73.4465 12.297ZM69.921 31.9199C62.9331 36.4483 54.7103 34.3266 50.773 27.3916C48.303 22.9899 48.3664 17.4059 51.2481 12.7615C58.0037 8.47588 66.6382 10.9353 70.3432 17.8176C72.866 22.4093 72.5071 27.6343 69.921 31.9199Z" fill="#EEEADD"/>
<path d="M41.7157 37.483C39.6679 40.3436 35.2451 45.1887 32.8596 46.0014L32.659 45.8642L48.9358 0H38.7813V0.74945L43.278 1.0239L28.3523 42.6659C28.0145 43.5525 26.5156 47.912 26.5156 48.3237C26.5156 49.2103 27.2017 49.8965 28.4262 49.8965C33.2607 49.8965 39.8052 42.5392 42.2646 37.9053L41.7157 37.483Z" fill="#EEEADD"/>
<path d="M3.14558 5.02415C4.62337 4.10581 6.11171 3.84192 7.6845 4.22192C9.03562 4.54915 10.1651 5.27748 11.0729 5.8686C11.1784 5.93193 11.2734 5.99527 11.3684 6.0586C12.1812 6.57583 14.6512 8.14862 17.6912 8.81362C18.6624 9.02473 19.6124 9.13029 20.5307 9.13029C22.8846 9.13029 25.1013 8.44417 27.1385 7.0825L27.0013 6.86083L27.1491 7.07194C28.7641 5.91082 29.8197 4.22192 29.8619 4.15859L29.218 3.75747C29.2074 3.77859 28.2046 5.38304 26.7163 6.44916C25.2385 7.3675 23.7502 7.63139 22.1774 7.25139C20.8263 6.92416 19.6968 6.19582 18.789 5.60471C18.6835 5.54138 18.5885 5.47804 18.4935 5.41471C17.6807 4.89748 15.2107 3.32469 12.1706 2.65969C8.75062 1.92079 5.56282 2.50135 2.72335 4.39081L2.86058 4.61248L2.7128 4.40137C1.09779 5.56249 0.0422225 7.25139 0 7.31472L0.643893 7.71584C0.654449 7.69472 1.65723 6.09027 3.14558 5.02415Z" fill="#EEEADD"/>
</svg>
