<svg width="181" height="118" viewBox="0 0 181 118" fill="none" xmlns="http://www.w3.org/2000/svg">
<path d="M1.16659 113.095C1.16659 113.902 1.82927 114.424 2.89975 114.424C4.00421 114.424 4.63291 113.936 4.63291 113.129C4.63291 111.245 0.588865 112.658 0.588865 110.219C0.588865 109.193 1.50642 108.436 2.88276 108.436C4.20811 108.436 5.15966 109.075 5.15966 110.185H4.49698C4.49698 109.412 3.8173 108.974 2.88276 108.974C1.9652 108.974 1.26854 109.412 1.26854 110.152C1.26854 111.985 5.32957 110.572 5.32957 113.095C5.32957 114.205 4.42901 114.962 2.89975 114.962C1.40447 114.962 0.503906 114.256 0.503906 113.095H1.16659Z" fill="black"/>
<path d="M2.89388 115.131C1.31365 115.131 0.328125 114.357 0.328125 113.096V112.927H1.31365V113.096C1.31365 113.819 1.90836 114.256 2.89388 114.256C3.8964 114.256 4.45713 113.836 4.45713 113.129C4.45713 112.44 3.81144 112.271 2.75795 112.07C1.72145 111.885 0.413084 111.649 0.413084 110.219C0.413084 109.076 1.4156 108.285 2.8599 108.285C4.33819 108.285 5.30672 109.042 5.30672 110.203V110.371H4.32119V110.203C4.32119 109.429 3.57356 109.16 2.87689 109.16C1.99332 109.16 1.43259 109.563 1.43259 110.169C1.43259 110.842 2.06129 110.993 3.08079 111.178C4.15128 111.363 5.47664 111.599 5.47664 113.096C5.47664 114.34 4.47412 115.131 2.89388 115.131ZM0.667961 113.264C0.75292 114.239 1.56853 114.794 2.89388 114.794C4.28721 114.794 5.15379 114.138 5.15379 113.096C5.15379 111.868 4.11729 111.683 3.01283 111.481C2.06129 111.313 1.09276 111.128 1.09276 110.152C1.09276 109.345 1.80641 108.807 2.87689 108.807C3.87941 108.807 4.55908 109.278 4.64404 110.018H4.96688C4.88192 109.143 4.1003 108.605 2.87689 108.605C1.63649 108.605 0.75292 109.261 0.75292 110.219C0.75292 111.38 1.75543 111.565 2.82592 111.767C3.79445 111.935 4.79696 112.12 4.79696 113.146C4.79696 114.054 4.08331 114.609 2.89388 114.609C1.80641 114.609 1.07576 114.088 0.990805 113.281H0.667961V113.264Z" fill="black"/>
<path d="M9.53125 108.537H10.1939V112.22L13.6263 108.537H14.4079L11.8081 111.278L14.5438 114.861H13.7962L11.3664 111.732L10.1769 112.994V114.878H9.53125V108.537Z" fill="black"/>
<path d="M14.8608 115.03H13.7054L11.3435 112.002L10.341 113.062V115.03H9.35547V108.369H10.341V111.8L13.5354 108.369H14.7758L12.0062 111.296L14.8608 115.03ZM13.8583 114.71H14.1811L11.5814 111.262L14.0112 108.689H13.6884L10.0181 112.641V108.706H9.67831V114.71H10.0181V112.927L11.3775 111.481L13.8583 114.71Z" fill="black"/>
<path d="M18.3125 108.537H18.9752V114.861H18.3125V108.537Z" fill="black"/>
<path d="M19.1418 115.03H18.1562V108.369H19.1418V115.03ZM18.4791 114.71H18.8019V108.706H18.4791V114.71Z" fill="black"/>
<path d="M23.457 108.537H24.0857L27.8239 113.768H27.8579L27.8239 108.537H28.4866V114.861H27.8579L24.1197 109.664H24.0857L24.1197 114.861H23.457V108.537Z" fill="black"/>
<path d="M28.6337 115.03H27.7501L24.2328 110.152L24.2668 115.03H23.2812V108.369H24.1648L27.6821 113.281L27.6481 108.369H28.6337V115.03ZM27.92 114.71H28.2938V108.706H27.971L28.005 113.937H27.7501L27.6821 113.852L23.9949 108.689H23.6041V114.693H23.9269L23.893 109.496H24.1478L24.2328 109.563L27.92 114.71Z" fill="black"/>
<path d="M37.8086 107.88H38.3863V117.081H37.8086V107.88Z" fill="black"/>
<path d="M38.5529 117.25H37.6523V107.713H38.5529V117.25ZM37.9752 116.913H38.2131V108.049H37.9752V116.913Z" fill="black"/>
<path d="M47.707 108.537H50.2728C51.6321 108.537 52.2608 109.142 52.2608 110.135C52.2608 110.774 51.887 111.312 51.1734 111.514V111.547C52.0229 111.682 52.5157 112.271 52.5157 113.011C52.5157 114.07 51.8021 114.861 50.4427 114.861H47.724V108.537H47.707ZM48.3697 109.108V111.295H50.2898C51.1394 111.295 51.5982 110.79 51.5982 110.135C51.5982 109.512 51.2243 109.108 50.2728 109.108H48.3697ZM48.3697 111.867V114.306H50.4257C51.3773 114.306 51.836 113.784 51.836 113.044C51.836 112.388 51.3773 111.884 50.4257 111.884H48.3697V111.867Z" fill="black"/>
<path d="M50.4199 115.03H47.5312V108.369H50.2669C51.6433 108.369 52.4079 108.991 52.4079 110.135C52.4079 110.724 52.119 111.212 51.6263 111.498C52.272 111.75 52.6628 112.305 52.6628 113.011C52.6628 114.256 51.7962 115.03 50.4199 115.03ZM47.8541 114.71H50.4029C51.5923 114.71 52.3059 114.088 52.3059 113.028C52.3059 112.339 51.8472 111.834 51.1165 111.716L50.9806 111.699V111.43L51.0995 111.363C51.7112 111.195 52.0681 110.741 52.0681 110.135C52.0681 109.176 51.4563 108.706 50.2499 108.706H47.8541V114.71ZM50.4199 114.458H48.1939V111.699H50.4199C51.5923 111.699 52.0001 112.389 52.0001 113.028C52.0001 113.92 51.4054 114.458 50.4199 114.458ZM48.5168 114.138H50.4199C51.2185 114.138 51.6603 113.752 51.6603 113.028C51.6603 112.389 51.2015 112.019 50.4199 112.019H48.5168V114.138ZM50.2839 111.447H48.1939V108.941H50.2669C51.4903 108.941 51.7452 109.58 51.7452 110.135C51.7452 110.926 51.1505 111.447 50.2839 111.447ZM48.5168 111.128H50.2669C50.9636 111.128 51.4054 110.741 51.4054 110.135C51.4054 109.765 51.2864 109.277 50.2499 109.277H48.5168V111.128Z" fill="black"/>
<path d="M56.6107 108.537H60.8417V109.108H57.2564V111.346H60.128V111.917H57.2564V114.289H60.9097V114.861H56.5938V108.537H56.6107Z" fill="black"/>
<path d="M61.0763 115.03H56.4375V108.369H61.0083V109.261H57.423V111.178H60.2946V112.086H57.423V114.138H61.0763V115.03ZM56.7773 114.71H60.7534V114.458H57.1002V111.767H59.9718V111.514H57.1002V108.941H60.6854V108.706H56.7773V114.71Z" fill="black"/>
<path d="M66.866 108.537H67.6306L70.0434 114.861H69.3638L68.6841 113.044H65.7955L65.1158 114.861H64.4531L66.866 108.537ZM67.2228 109.226L65.9994 112.489H68.4632L67.2568 109.226H67.2228Z" fill="black"/>
<path d="M70.2809 115.03H69.2444L68.5647 113.213H65.914L65.2344 115.03H64.2148L66.7466 108.369H67.7491L70.2809 115.03ZM69.4653 114.71H69.8051L67.5282 108.706H66.9845L64.7076 114.71H65.0135L65.6931 112.894H68.8026L69.4653 114.71ZM68.7007 112.658H65.7611L67.1034 109.059H67.3753L68.7007 112.658ZM66.2369 112.322H68.2249L67.2394 109.647L66.2369 112.322Z" fill="black"/>
<path d="M73.5977 108.537H74.2603V112.372C74.2603 113.667 74.889 114.373 76.0955 114.373C77.2849 114.373 77.9306 113.667 77.9306 112.372V108.537H78.5933V112.372C78.5933 114.205 77.5737 114.962 76.0955 114.962C74.6342 114.962 73.5977 114.205 73.5977 112.372V108.537Z" fill="black"/>
<path d="M76.0921 115.131C74.376 115.131 73.4414 114.155 73.4414 112.372V108.369H74.4269V112.372C74.4269 113.583 74.9877 114.206 76.0921 114.206C77.4685 114.206 77.7573 113.213 77.7573 112.372V108.369H78.7428V112.372C78.7428 114.155 77.7913 115.131 76.0921 115.131ZM73.7643 108.706V112.372C73.7643 113.953 74.5629 114.794 76.0921 114.794C77.6044 114.794 78.42 113.953 78.42 112.372V108.706H78.0972V112.372C78.0972 113.768 77.3835 114.525 76.0921 114.525C74.8008 114.525 74.0871 113.752 74.0871 112.372V108.706H73.7643Z" fill="black"/>
<path d="M82.1654 108.537H87.3989V109.092H85.105V114.878H84.4423V109.092H82.1484V108.537H82.1654Z" fill="black"/>
<path d="M85.2691 115.03H84.2665V109.261H81.9727V108.369H87.529V109.244H85.2351V115.03H85.2691ZM84.6064 114.71H84.9292V108.924H87.2231V108.706H82.3295V108.924H84.6234V114.71H84.6064Z" fill="black"/>
<path d="M92.9462 112.355L90.6523 108.554H91.4L93.2691 111.699H93.3031L95.2401 108.554H95.9198L93.6089 112.305V114.878H92.9462V112.355Z" fill="black"/>
<path d="M93.7786 115.03H92.7931V112.389L90.3633 108.369H91.5017L93.3029 111.38L95.1719 108.369H96.2424L93.7786 112.355V115.03ZM93.1159 114.71H93.4388V112.255L95.6307 108.706H95.3249L93.3878 111.851H93.2009L93.1159 111.767L91.2808 108.706H90.924L93.099 112.305V114.71H93.1159Z" fill="black"/>
<path d="M104.547 107.88H105.125V117.081H104.547V107.88Z" fill="black"/>
<path d="M105.283 117.25H104.383V107.713H105.283V117.25ZM104.706 116.913H104.944V108.049H104.706V116.913Z" fill="black"/>
<path d="M113.723 108.537H114.402L115.864 114.188H115.898L117.495 108.537H118.293L119.891 114.188H119.925L121.352 108.537H122.015L120.315 114.861H119.483L117.903 109.294H117.869L116.271 114.861H115.439L113.723 108.537Z" fill="black"/>
<path d="M120.457 115.03H119.37L117.892 109.849L116.413 115.03H115.326L113.508 108.369H114.544L115.887 113.617L117.365 108.369H118.418L119.897 113.6L121.222 108.369H122.225L120.457 115.03ZM119.625 114.71H120.203L121.817 108.706H121.494L120.067 114.357H119.812L119.744 114.239L118.181 108.706H117.637L116.04 114.357H115.785L115.717 114.239L114.306 108.722H113.967L115.598 114.727H116.176L117.773 109.16H118.028L118.096 109.277L119.625 114.71Z" fill="black"/>
<path d="M125.783 108.537H130.014V109.108H126.428V111.346H129.3V111.917H126.428V114.289H130.082V114.861H125.766V108.537H125.783Z" fill="black"/>
<path d="M130.268 115.03H125.629V108.369H130.2V109.261H126.614V111.178H129.486V112.086H126.614V114.138H130.268V115.03ZM125.952 114.71H129.928V114.458H126.275V111.767H129.146V111.514H126.275V108.941H129.86V108.706H125.952V114.71Z" fill="black"/>
<path d="M134.207 108.537H134.87V114.289H138.132V114.861H134.207V108.537Z" fill="black"/>
<path d="M138.299 115.03H134.051V108.369H135.036V114.122H138.299V115.03ZM134.374 114.71H137.959V114.458H134.696V108.706H134.374V114.71Z" fill="black"/>
<path d="M142.023 108.537H142.686V114.289H145.949V114.861H142.023V108.537Z" fill="black"/>
<path d="M146.115 115.03H141.867V108.369H142.853V114.122H146.115V115.03ZM142.19 114.71H145.775V114.458H142.513V108.706H142.19V114.71Z" fill="black"/>
<path d="M149.844 108.537H150.472L154.211 113.768H154.245L154.211 108.537H154.873V114.861H154.245L150.506 109.664H150.472L150.506 114.861H149.844V108.537Z" fill="black"/>
<path d="M155.036 115.03H154.152L150.635 110.152L150.669 115.03H149.684V108.369H150.567L154.084 113.281L154.05 108.369H155.036V115.03ZM154.322 114.71H154.696V108.706H154.373L154.407 113.937H154.152L154.067 113.869L150.38 108.706H150.006V114.71H150.329L150.295 109.513H150.55L150.635 109.58L154.322 114.71Z" fill="black"/>
<path d="M159.353 108.537H163.584V109.108H159.999V111.346H162.87V111.917H159.999V114.289H163.652V114.861H159.336V108.537H159.353Z" fill="black"/>
<path d="M163.842 115.03H159.203V108.369H163.774V109.261H160.189V111.178H163.06V112.086H160.189V114.138H163.842V115.03ZM159.526 114.71H163.502V114.458H159.849V111.767H162.72V111.514H159.849V108.941H163.434V108.706H159.526V114.71Z" fill="black"/>
<path d="M168.131 113.095C168.131 113.902 168.794 114.423 169.865 114.423C170.969 114.423 171.598 113.936 171.598 113.128C171.598 111.244 167.554 112.657 167.554 110.218C167.554 109.192 168.471 108.436 169.848 108.436C171.173 108.436 172.124 109.075 172.124 110.185H171.462C171.462 109.411 170.782 108.974 169.848 108.974C168.93 108.974 168.233 109.411 168.233 110.151C168.233 111.985 172.294 110.572 172.294 113.095C172.294 114.205 171.394 114.962 169.865 114.962C168.369 114.962 167.469 114.255 167.469 113.095H168.131Z" fill="black"/>
<path d="M169.87 115.131C168.29 115.131 167.305 114.357 167.305 113.095V112.927H168.29V113.095C168.29 113.819 168.885 114.256 169.853 114.256C170.856 114.256 171.434 113.835 171.434 113.129C171.434 112.439 170.788 112.271 169.735 112.069C168.681 111.884 167.39 111.649 167.39 110.202C167.39 109.059 168.392 108.268 169.836 108.268C171.315 108.268 172.283 109.025 172.283 110.186V110.354H171.298V110.186C171.298 109.412 170.55 109.143 169.853 109.143C168.97 109.143 168.409 109.546 168.409 110.152C168.409 110.825 169.038 110.976 170.057 111.161C171.128 111.346 172.47 111.598 172.47 113.095C172.47 114.34 171.451 115.131 169.87 115.131ZM167.645 113.264C167.729 114.239 168.545 114.794 169.87 114.794C171.264 114.794 172.13 114.138 172.13 113.095C172.13 111.868 171.094 111.683 169.989 111.481C169.038 111.312 168.069 111.127 168.069 110.152C168.069 109.345 168.783 108.806 169.853 108.806C170.856 108.806 171.536 109.277 171.621 110.017H171.943C171.858 109.143 171.06 108.604 169.836 108.604C168.596 108.604 167.712 109.26 167.712 110.219C167.712 111.38 168.715 111.565 169.786 111.767C170.754 111.935 171.757 112.12 171.757 113.146C171.757 114.054 171.043 114.609 169.853 114.609C168.766 114.609 168.052 114.088 167.95 113.28H167.645V113.264Z" fill="black"/>
<path d="M176.635 113.096C176.635 113.903 177.298 114.424 178.368 114.424C179.473 114.424 180.102 113.937 180.102 113.129C180.102 111.245 176.058 112.658 176.058 110.219C176.058 109.193 176.975 108.437 178.352 108.437C179.677 108.437 180.628 109.076 180.628 110.186H179.966C179.966 109.412 179.286 108.975 178.352 108.975C177.434 108.975 176.737 109.412 176.737 110.152C176.737 111.986 180.798 110.573 180.798 113.096C180.798 114.206 179.898 114.963 178.368 114.963C176.873 114.963 175.973 114.256 175.973 113.096H176.635Z" fill="black"/>
<path d="M178.382 115.131C176.802 115.131 175.816 114.357 175.816 113.095V112.927H176.802V113.095C176.802 113.819 177.397 114.256 178.382 114.256C179.385 114.256 179.962 113.835 179.962 113.129C179.962 112.439 179.317 112.271 178.263 112.069C177.21 111.884 175.918 111.649 175.918 110.202C175.918 109.059 176.921 108.268 178.365 108.268C179.843 108.268 180.812 109.025 180.812 110.186V110.354H179.826V110.186C179.826 109.412 179.079 109.143 178.382 109.143C177.499 109.143 176.938 109.546 176.938 110.152C176.938 110.825 177.567 110.976 178.586 111.161C179.657 111.346 180.999 111.598 180.999 113.095C180.965 114.34 179.945 115.131 178.382 115.131ZM176.156 113.264C176.241 114.239 177.057 114.794 178.382 114.794C179.776 114.794 180.642 114.138 180.642 113.095C180.642 111.868 179.606 111.683 178.501 111.481C177.55 111.312 176.581 111.127 176.581 110.152C176.581 109.345 177.295 108.806 178.365 108.806C179.368 108.806 180.047 109.277 180.132 110.017H180.455C180.37 109.143 179.572 108.604 178.348 108.604C177.108 108.604 176.224 109.26 176.224 110.219C176.224 111.38 177.227 111.565 178.297 111.767C179.266 111.935 180.268 112.12 180.268 113.146C180.268 114.054 179.555 114.609 178.365 114.609C177.278 114.609 176.547 114.088 176.462 113.28H176.156V113.264Z" fill="black"/>
<path d="M76.909 29.9503C76.5575 30.2132 73.924 32.7595 72.4335 34.25C70.766 31.0021 67.9567 28.3699 64.3573 27.141C60.0576 25.7364 55.2293 26.5266 51.6313 29.3345C50.4896 30.2132 44.7853 35.8303 43.4679 37.4979C36.7091 45.6613 40.0455 57.9474 51.1913 59.8779L42.239 68.3927C43.1164 69.4459 45.3112 69.7088 47.2417 69.7088C40.3098 76.642 37.0619 79.364 38.8167 83.928C40.7485 88.4035 47.3302 90.5111 53.1231 90.8626C58.2143 91.1255 64.8846 89.6337 68.6584 87.0002C76.909 80.8572 80.2441 74.7128 76.7332 69.0072C74.8027 66.0235 72.1692 64.5317 68.4826 63.9173C64.0944 63.3028 56.0195 63.7415 52.7716 63.7415C51.9814 63.6543 49.3479 63.4786 48.7335 62.8628L51.9814 59.9664C55.228 60.3166 59.0032 59.7907 61.5481 58.2988C63.5672 57.3329 70.0617 50.9256 71.2905 49.1708C74.5385 44.9583 74.8014 39.3412 72.6952 34.8644C74.8014 33.9857 77.3477 34.4257 79.0152 36.269L84.9838 30.2132C82.7904 27.9299 79.2795 27.8427 76.909 29.9503ZM56.9854 69.5344C59.8819 69.6216 62.9527 69.7088 65.6747 70.7633C70.063 72.4308 73.3109 77.4335 71.8178 82.5247C67.781 84.5438 61.2852 85.2468 56.4582 84.631C48.6463 83.5779 41.7131 78.7509 45.3984 72.2551L48.1204 69.7101C50.7539 69.7088 54.352 69.5344 56.9854 69.5344ZM66.9036 52.5932C60.4963 55.5781 51.807 53.9978 48.1217 48.2935C45.4882 44.3439 45.3125 38.9897 47.7702 33.987C53.3002 31.1778 59.093 32.5824 63.1298 36.0048C67.6053 39.9543 69.8886 46.4502 66.9036 52.5932Z" fill="black"/>
<path d="M139.716 15.841C136.463 11.3787 131.016 8.50341 125.569 8.50341C120.955 8.42809 116.946 10.5449 112.861 14.176C107.036 20.0006 103.707 23.0279 103.102 30.0628C102.271 40.3496 110.289 49.4287 120.35 49.4287C124.889 49.5041 129.428 47.5379 133.286 43.6795C138.582 38.3834 141.759 35.7367 142.817 29.2317C143.424 24.8434 142.591 20.0019 139.716 15.841ZM135.177 41.1094C126.175 46.934 115.585 44.2093 110.516 35.2848C107.339 29.6109 107.415 22.424 111.122 16.4488C119.82 10.9268 130.941 14.1034 135.707 22.9552C138.96 28.8538 138.506 35.5861 135.177 41.1094Z" fill="black"/>
<path d="M98.8494 48.2734C96.2172 51.96 90.5116 58.1903 87.4394 59.2447L87.1765 59.069L108.153 0H95.0756V0.965918L100.868 1.31608L81.6466 54.9437C81.2079 56.0853 79.2773 61.7025 79.2773 62.2284C79.2773 63.37 80.1547 64.2474 81.7351 64.2474C87.9666 64.2474 96.393 54.7693 99.5524 48.7993L98.8494 48.2734Z" fill="black"/>
<path d="M139.061 55.4868C137.885 55.4868 136.195 56.1488 136.195 58.4995C136.195 61.3669 137.959 61.5136 140.016 61.9549C140.532 62.1029 140.751 63.7202 140.751 65.4843C140.751 72.395 133.18 86.2138 125.388 86.2138C121.786 86.2138 120.756 84.8172 119.506 82.4651C125.536 76.9524 131.636 68.057 131.636 61.5149C131.636 58.5735 130.755 56.1488 128.255 56.1488C122.889 56.1488 114.655 68.645 114.655 79.6718C114.655 81.7305 114.729 83.4205 115.243 84.9638C113.333 86.4345 112.155 87.0965 110.539 87.0965C106.496 87.0965 103.923 85.1118 103.923 80.6271C103.923 75.1157 109.584 67.7623 113.7 62.6169C115.391 60.4842 117.007 58.2802 118.699 56.0008L118.331 55.4868C117.523 55.8542 114.435 55.8542 112.745 55.8542H106.277C100.543 55.8542 96.8672 61.5889 96.8672 64.7496C96.8672 67.469 97.6759 69.969 99.8812 69.969C101.351 69.969 102.454 68.793 102.454 67.6909C102.454 66.7343 102.013 65.6323 100.763 65.6323C100.175 65.6323 99.5866 65.7776 98.9986 65.7776C98.7779 65.7776 97.8965 65.9256 97.8965 64.6756C97.8965 62.7649 100.102 60.6322 104.292 60.6322H114.069C107.011 68.497 98.4105 75.9957 98.4105 82.7585C98.4105 88.5672 102.159 91.1399 107.158 91.1399C109.951 91.1399 112.157 89.1552 115.538 85.7738C117.083 89.2292 120.023 91.1399 123.11 91.1399C132.812 91.1399 142.296 74.599 142.296 63.6476C142.296 58.0595 141.046 55.4868 139.061 55.4868ZM117.89 74.525C117.89 68.2776 120.683 60.7789 124.801 60.7789C126.932 60.7789 127.226 63.2036 127.226 65.4103C127.226 70.409 123.698 77.0991 119.066 81.7305C118.111 79.5991 117.89 77.0991 117.89 74.525Z" fill="black"/>
<path d="M87.1464 89.1589C89.3349 89.1589 91.1091 87.3847 91.1091 85.1962C91.1091 83.0076 89.3349 81.2334 87.1464 81.2334C84.9578 81.2334 83.1836 83.0076 83.1836 85.1962C83.1836 87.3847 84.9578 89.1589 87.1464 89.1589Z" fill="black"/>
<path d="M49.1815 6.46704C51.0869 5.28177 52.9976 4.94483 55.0232 5.43902C56.7635 5.86318 58.2209 6.80399 59.3903 7.55981C59.5225 7.6457 59.6507 7.72762 59.7735 7.80558C60.8201 8.47155 64.0045 10.4998 67.9184 11.3548C69.1658 11.627 70.3867 11.7631 71.5799 11.7631C74.6138 11.7631 77.4653 10.883 80.0908 9.13223L79.9098 8.85078L80.1054 9.12298C82.1892 7.62984 83.5449 5.45884 83.6017 5.36766L82.7772 4.85762C82.764 4.87876 81.4677 6.94934 79.5517 8.3262C77.6463 9.51146 75.7343 9.84841 73.7087 9.35422C71.9671 8.92874 70.511 7.98925 69.3415 7.23343C69.2094 7.14754 69.0826 7.06562 68.9597 6.98766C67.9131 6.32169 64.7287 4.29339 60.8148 3.43847C56.3961 2.47387 52.2999 3.22045 48.6424 5.66101L48.8234 5.94246L48.6291 5.67026C46.5454 7.1634 45.1896 9.3344 45.1328 9.42558L45.9573 9.93562C45.9692 9.9158 47.2668 7.8439 49.1815 6.46704Z" fill="black"/>
</svg>
