<svg width="24" height="23" viewBox="0 0 24 23" fill="none" xmlns="http://www.w3.org/2000/svg">
<path d="M24 12.9375L23.9484 10.0129C20.3355 10.5582 17.3935 11.0043 13.0581 11.1034C16.2065 8.17888 18.5806 6.49353 21.5226 4.41164L19.3548 2.32974C17.1871 5.15517 15.4323 7.48491 12.4387 10.4591C12.5419 6.34483 12.9548 3.46983 13.5226 0H10.4774C11.0452 3.46983 11.4581 6.34483 11.5613 10.4591C8.56774 7.48491 6.76129 5.15517 4.59355 2.32974L2.42581 4.41164C5.47097 6.49353 7.74194 8.22845 10.9419 11.1034C6.55484 11.0043 3.66452 10.5582 0 10.0129V12.9871C3.6129 12.4418 6.60645 11.9957 10.8903 11.8966C7.74194 14.7716 5.36774 16.4569 2.42581 18.5884L4.59355 20.6703C6.76129 17.7953 8.56774 15.5647 11.5613 12.5409C11.4581 16.7047 11.0452 19.5302 10.4774 23H13.5226C12.9548 19.5302 12.5419 16.7047 12.4387 12.4914C15.3806 15.5151 17.1871 17.8448 19.3548 20.6703L21.5226 18.5884C18.5806 16.5065 16.1548 14.8211 13.0581 11.9461C17.3935 12.0453 20.3871 12.3922 24 12.9375Z" fill="black"/>
</svg>
