<svg width="24" height="26" viewBox="0 0 24 26" fill="none" xmlns="http://www.w3.org/2000/svg">
<path d="M19.8972 3.65356H3.48006C2.18479 3.65356 1.13477 4.70359 1.13477 5.99886V22.416C1.13477 23.7112 2.18479 24.7613 3.48006 24.7613H19.8972C21.1924 24.7613 22.2425 23.7112 22.2425 22.416V5.99886C22.2425 4.70359 21.1924 3.65356 19.8972 3.65356Z" stroke="white" stroke-width="2" stroke-linecap="round" stroke-linejoin="round"/>
<path d="M16.3789 1.30762V5.99822" stroke="white" stroke-width="2" stroke-linecap="round" stroke-linejoin="round"/>
<path d="M6.99902 1.30762V5.99822" stroke="white" stroke-width="2" stroke-linecap="round" stroke-linejoin="round"/>
<path d="M1.13477 10.6885H22.2425" stroke="white" stroke-width="2" stroke-linecap="round" stroke-linejoin="round"/>
<path fill-rule="evenodd" clip-rule="evenodd" d="M15.659 14.3152C15.8371 14.4913 15.8371 14.7769 15.659 14.953L10.6426 19.9143C10.4645 20.0904 10.1758 20.0904 9.9977 19.9143L7.71755 17.6592C7.53946 17.483 7.53946 17.1975 7.71755 17.0213C7.89564 16.8452 8.18439 16.8452 8.36248 17.0213L10.3202 18.9575L15.014 14.3152C15.1921 14.1391 15.4809 14.1391 15.659 14.3152Z" fill="black" stroke="white" stroke-linecap="round" stroke-linejoin="round"/>
</svg>
