<svg width="107" height="111" viewBox="0 0 107 111" fill="none" xmlns="http://www.w3.org/2000/svg">
<path d="M0.490138 108.552C0.490138 109.028 0.880668 109.335 1.51152 109.335C2.1624 109.335 2.53291 109.047 2.53291 108.572C2.53291 107.462 0.149677 108.294 0.149677 106.857C0.149677 106.252 0.69041 105.806 1.50151 105.806C2.28257 105.806 2.84333 106.183 2.84333 106.837H2.4528C2.4528 106.381 2.05225 106.123 1.50151 106.123C0.960776 106.123 0.55022 106.381 0.55022 106.817C0.55022 107.898 2.94346 107.065 2.94346 108.552C2.94346 109.206 2.41274 109.652 1.51152 109.652C0.630328 109.652 0.0996094 109.236 0.0996094 108.552H0.490138Z" fill="black"/>
<path d="M1.51205 109.752C0.580787 109.752 0 109.296 0 108.552V108.453H0.580787V108.552C0.580787 108.978 0.931262 109.236 1.51205 109.236C2.10285 109.236 2.4333 108.988 2.4333 108.572C2.4333 108.166 2.05278 108.066 1.43194 107.948C0.821112 107.839 0.0500678 107.7 0.0500678 106.857C0.0500678 106.183 0.640868 105.717 1.49202 105.717C2.3632 105.717 2.93397 106.163 2.93397 106.847V106.946H2.35319V106.847C2.35319 106.391 1.91259 106.233 1.50203 106.233C0.98133 106.233 0.650882 106.471 0.650882 106.827C0.650882 107.224 1.02138 107.313 1.6222 107.422C2.25305 107.531 3.03411 107.67 3.03411 108.552C3.03411 109.286 2.44331 109.752 1.51205 109.752ZM0.200271 108.651C0.250339 109.226 0.73099 109.553 1.51205 109.553C2.33316 109.553 2.84385 109.167 2.84385 108.552C2.84385 107.829 2.23303 107.72 1.58214 107.601C1.02138 107.501 0.45061 107.392 0.45061 106.818C0.45061 106.342 0.87118 106.025 1.50203 106.025C2.09284 106.025 2.49338 106.302 2.54345 106.738H2.7337C2.68364 106.223 2.22301 105.906 1.50203 105.906C0.771045 105.906 0.250339 106.292 0.250339 106.857C0.250339 107.541 0.84114 107.65 1.47199 107.769C2.04277 107.868 2.63357 107.977 2.63357 108.582C2.63357 109.117 2.213 109.444 1.51205 109.444C0.87118 109.444 0.440597 109.137 0.390529 108.661H0.200271V108.651Z" fill="black"/>
<path d="M5.41699 105.865H5.80752V108.036L7.83026 105.865H8.29089L6.75881 107.481L8.37099 109.592H7.9304L6.49846 107.749L5.79751 108.492V109.602H5.41699V105.865Z" fill="black"/>
<path d="M8.56178 109.692H7.88086L6.48897 107.908L5.89817 108.532V109.692H5.31738V105.767H5.89817V107.789L7.78072 105.767H8.51171L6.8795 107.491L8.56178 109.692ZM7.97098 109.504H8.16123L6.62916 107.472L8.0611 105.955H7.87084L5.70791 108.284V105.965H5.50764V109.504H5.70791V108.453L6.509 107.6L7.97098 109.504Z" fill="black"/>
<path d="M10.5938 105.865H10.9843V109.592H10.5938V105.865Z" fill="black"/>
<path d="M11.0857 109.692H10.5049V105.767H11.0857V109.692ZM10.6951 109.504H10.8854V105.965H10.6951V109.504Z" fill="black"/>
<path d="M13.6289 105.865H13.9994L16.2024 108.948H16.2224L16.2024 105.865H16.5929V109.592H16.2224L14.0194 106.529H13.9994L14.0194 109.592H13.6289V105.865Z" fill="black"/>
<path d="M16.6826 109.692H16.1619L14.0891 106.817L14.1091 109.692H13.5283V105.767H14.049L16.1218 108.661L16.1018 105.767H16.6826V109.692ZM16.262 109.504H16.4823V105.965H16.2921L16.3121 109.048H16.1619L16.1218 108.998L13.9489 105.955H13.7186V109.494H13.9088L13.8888 106.431H14.039L14.0891 106.47L16.262 109.504Z" fill="black"/>
<path d="M22.0908 105.479H22.4313V110.901H22.0908V105.479Z" fill="black"/>
<path d="M22.5317 111H22.001V105.38H22.5317V111ZM22.1912 110.802H22.3314V105.578H22.1912V110.802Z" fill="black"/>
<path d="M27.918 105.865H29.43C30.2311 105.865 30.6016 106.222 30.6016 106.807C30.6016 107.184 30.3813 107.501 29.9607 107.62V107.64C30.4614 107.719 30.7518 108.066 30.7518 108.502C30.7518 109.126 30.3312 109.592 29.5302 109.592H27.928V105.865H27.918ZM28.3085 106.202V107.491H29.44C29.9407 107.491 30.2111 107.193 30.2111 106.807C30.2111 106.44 29.9908 106.202 29.43 106.202H28.3085ZM28.3085 107.828V109.265H29.5201C30.0809 109.265 30.3513 108.958 30.3513 108.522C30.3513 108.135 30.0809 107.838 29.5201 107.838H28.3085V107.828Z" fill="black"/>
<path d="M29.5197 109.692H27.8174V105.767H29.4296C30.2407 105.767 30.6913 106.133 30.6913 106.807C30.6913 107.154 30.521 107.442 30.2307 107.61C30.6112 107.759 30.8415 108.086 30.8415 108.502C30.8415 109.236 30.3308 109.692 29.5197 109.692ZM28.0076 109.504H29.5097C30.2106 109.504 30.6312 109.137 30.6312 108.512C30.6312 108.106 30.3608 107.809 29.9302 107.739L29.8501 107.729V107.571L29.9202 107.531C30.2807 107.432 30.491 107.164 30.491 106.807C30.491 106.242 30.1305 105.965 29.4196 105.965H28.0076V109.504ZM29.5197 109.355H28.2079V107.729H29.5197C30.2106 107.729 30.451 108.136 30.451 108.512C30.451 109.038 30.1005 109.355 29.5197 109.355ZM28.3982 109.167H29.5197C29.9903 109.167 30.2507 108.939 30.2507 108.512C30.2507 108.136 29.9803 107.918 29.5197 107.918H28.3982V109.167ZM29.4396 107.581H28.2079V106.104H29.4296C30.1505 106.104 30.3007 106.48 30.3007 106.807C30.3007 107.273 29.9503 107.581 29.4396 107.581ZM28.3982 107.392H29.4296C29.8401 107.392 30.1005 107.164 30.1005 106.807C30.1005 106.589 30.0304 106.302 29.4196 106.302H28.3982V107.392Z" fill="black"/>
<path d="M33.1653 105.865H35.6587V106.202H33.5458V107.521H35.2381V107.858H33.5458V109.255H35.6987V109.592H33.1553V105.865H33.1653Z" fill="black"/>
<path d="M35.7991 109.692H33.0654V105.767H35.7591V106.292H33.6462V107.422H35.3385V107.957H33.6462V109.167H35.7991V109.692ZM33.2657 109.504H35.6089V109.355H33.456V107.769H35.1482V107.62H33.456V106.104H35.5688V105.965H33.2657V109.504Z" fill="black"/>
<path d="M39.212 105.865H39.6626L41.0845 109.592H40.684L40.2834 108.522H38.5811L38.1806 109.592H37.79L39.212 105.865ZM39.4222 106.272L38.7013 108.195H40.1532L39.4423 106.272H39.4222Z" fill="black"/>
<path d="M41.2252 109.692H40.6144L40.2139 108.621H38.6517L38.2512 109.692H37.6504L39.1424 105.767H39.7332L41.2252 109.692ZM40.7446 109.504H40.9449L39.603 105.965H39.2826L37.9408 109.504H38.121L38.5216 108.433H40.3541L40.7446 109.504ZM40.294 108.294H38.5616L39.3527 106.173H39.5129L40.294 108.294ZM38.842 108.096H40.0136L39.4328 106.52L38.842 108.096Z" fill="black"/>
<path d="M43.1777 105.865H43.5683V108.125C43.5683 108.888 43.9388 109.305 44.6497 109.305C45.3507 109.305 45.7312 108.888 45.7312 108.125V105.865H46.1217V108.125C46.1217 109.206 45.5209 109.652 44.6497 109.652C43.7886 109.652 43.1777 109.206 43.1777 108.125V105.865Z" fill="black"/>
<path d="M44.65 109.751C43.6386 109.751 43.0879 109.176 43.0879 108.126V105.767H43.6687V108.126C43.6687 108.839 43.9991 109.206 44.65 109.206C45.4611 109.206 45.6313 108.621 45.6313 108.126V105.767H46.2121V108.126C46.2121 109.176 45.6514 109.751 44.65 109.751ZM43.2782 105.965V108.126C43.2782 109.057 43.7488 109.553 44.65 109.553C45.5412 109.553 46.0219 109.057 46.0219 108.126V105.965H45.8316V108.126C45.8316 108.948 45.411 109.394 44.65 109.394C43.889 109.394 43.4684 108.939 43.4684 108.126V105.965H43.2782Z" fill="black"/>
<path d="M48.2258 105.865H51.31V106.192H49.9582V109.602H49.5677V106.192H48.2158V105.865H48.2258Z" fill="black"/>
<path d="M50.0569 109.692H49.4661V106.292H48.1143V105.767H51.3887V106.282H50.0369V109.692H50.0569ZM49.6664 109.504H49.8566V106.094H51.2084V105.965H48.3245V106.094H49.6764V109.504H49.6664Z" fill="black"/>
<path d="M54.5833 108.116L53.2314 105.875H53.672L54.7735 107.729H54.7936L55.9351 105.875H56.3357L54.9738 108.086V109.602H54.5833V108.116Z" fill="black"/>
<path d="M55.0742 109.692H54.4935V108.136L53.0615 105.767H53.7324L54.7939 107.541L55.8954 105.767H56.5262L55.0742 108.116V109.692ZM54.6837 109.504H54.874V108.056L56.1657 105.965H55.9855L54.8439 107.818H54.7338L54.6837 107.769L53.6023 105.965H53.392L54.6737 108.086V109.504H54.6837Z" fill="black"/>
<path d="M61.4229 105.479H61.7633V110.901H61.4229V105.479Z" fill="black"/>
<path d="M61.854 111H61.3232V105.38H61.854V111ZM61.5135 110.802H61.6537V105.578H61.5135V110.802Z" fill="black"/>
<path d="M66.8311 105.865H67.2316L68.0928 109.196H68.1128L69.0541 105.865H69.5247L70.466 109.196H70.486L71.3272 105.865H71.7177L70.7163 109.592H70.2257L69.2944 106.311H69.2744L68.3331 109.592H67.8424L66.8311 105.865Z" fill="black"/>
<path d="M70.7967 109.692H70.1558L69.2847 106.639L68.4135 109.692H67.7726L66.7012 105.767H67.312L68.1031 108.859L68.9742 105.767H69.5951L70.4663 108.849L71.2473 105.767H71.8381L70.7967 109.692ZM70.306 109.504H70.6465L71.5978 105.965H71.4075L70.5664 109.295H70.4162L70.3761 109.226L69.4549 105.965H69.1345L68.1932 109.295H68.043L68.0029 109.226L67.1718 105.975H66.9715L67.9328 109.513H68.2733L69.2146 106.232H69.3648L69.4048 106.302L70.306 109.504Z" fill="black"/>
<path d="M73.9299 105.865H76.4233V106.202H74.3105V107.521H76.0027V107.858H74.3105V109.255H76.4634V109.592H73.9199V105.865H73.9299Z" fill="black"/>
<path d="M76.5735 109.692H73.8398V105.767H76.5335V106.292H74.4206V107.422H76.1129V107.957H74.4206V109.167H76.5735V109.692ZM74.0301 109.504H76.3733V109.355H74.2204V107.769H75.9127V107.62H74.2204V106.104H76.3332V105.965H74.0301V109.504Z" fill="black"/>
<path d="M78.8965 105.865H79.287V109.255H81.2096V109.592H78.8965V105.865Z" fill="black"/>
<path d="M81.3091 109.692H78.8057V105.767H79.3865V109.157H81.3091V109.692ZM78.9959 109.504H81.1088V109.355H79.1862V105.965H78.9959V109.504Z" fill="black"/>
<path d="M83.502 105.865H83.8925V109.255H85.8151V109.592H83.502V105.865Z" fill="black"/>
<path d="M85.9155 109.692H83.4121V105.767H83.9929V109.157H85.9155V109.692ZM83.6024 109.504H85.7152V109.355H83.7926V105.965H83.6024V109.504Z" fill="black"/>
<path d="M88.1104 105.865H88.4809L90.6838 108.948H90.7039L90.6838 105.865H91.0744V109.592H90.7039L88.5009 106.529H88.4809L88.5009 109.592H88.1104V105.865Z" fill="black"/>
<path d="M91.1728 109.692H90.6521L88.5793 106.817L88.5993 109.692H88.0186V105.767H88.5393L90.6121 108.661L90.592 105.767H91.1728V109.692ZM90.7522 109.504H90.9725V105.965H90.7823L90.8023 109.048H90.6521L90.6021 109.008L88.4291 105.965H88.2088V109.504H88.3991L88.379 106.441H88.5292L88.5793 106.48L90.7522 109.504Z" fill="black"/>
<path d="M93.7151 105.865H96.2085V106.202H94.0956V107.521H95.7879V107.858H94.0956V109.255H96.2485V109.592H93.7051V105.865H93.7151Z" fill="black"/>
<path d="M96.3607 109.692H93.627V105.767H96.3206V106.292H94.2077V107.422H95.9V107.957H94.2077V109.167H96.3607V109.692ZM93.8172 109.504H96.1604V109.355H94.0075V107.769H95.6998V107.62H94.0075V106.104H96.1203V105.965H93.8172V109.504Z" fill="black"/>
<path d="M98.8935 108.551C98.8935 109.027 99.284 109.334 99.9148 109.334C100.566 109.334 100.936 109.047 100.936 108.571C100.936 107.461 98.553 108.294 98.553 106.856C98.553 106.252 99.0937 105.806 99.9048 105.806C100.686 105.806 101.247 106.182 101.247 106.837H100.856C100.856 106.381 100.456 106.123 99.9048 106.123C99.3641 106.123 98.9535 106.381 98.9535 106.817C98.9535 107.897 101.347 107.065 101.347 108.551C101.347 109.206 100.816 109.652 99.9148 109.652C99.0336 109.652 98.5029 109.235 98.5029 108.551H98.8935Z" fill="black"/>
<path d="M99.9163 109.751C98.9851 109.751 98.4043 109.295 98.4043 108.552V108.453H98.9851V108.552C98.9851 108.978 99.3356 109.236 99.9063 109.236C100.497 109.236 100.838 108.988 100.838 108.572C100.838 108.165 100.457 108.066 99.8362 107.947C99.2154 107.838 98.4544 107.699 98.4544 106.847C98.4544 106.173 99.0452 105.707 99.8963 105.707C100.768 105.707 101.338 106.153 101.338 106.837V106.936H100.757V106.837C100.757 106.381 100.317 106.222 99.9063 106.222C99.3856 106.222 99.0552 106.46 99.0552 106.817C99.0552 107.214 99.4257 107.303 100.026 107.412C100.657 107.521 101.448 107.67 101.448 108.552C101.448 109.285 100.848 109.751 99.9163 109.751ZM98.6046 108.651C98.6546 109.226 99.1353 109.553 99.9163 109.553C100.737 109.553 101.248 109.166 101.248 108.552C101.248 107.828 100.637 107.719 99.9864 107.6C99.4257 107.501 98.8549 107.392 98.8549 106.817C98.8549 106.341 99.2755 106.024 99.9063 106.024C100.497 106.024 100.898 106.302 100.948 106.738H101.138C101.088 106.222 100.617 105.905 99.8963 105.905C99.1653 105.905 98.6446 106.292 98.6446 106.857C98.6446 107.541 99.2354 107.65 99.8663 107.769C100.437 107.868 101.028 107.977 101.028 108.582C101.028 109.117 100.607 109.444 99.9063 109.444C99.2655 109.444 98.8449 109.137 98.7848 108.661H98.6046V108.651Z" fill="black"/>
<path d="M103.9 108.552C103.9 109.028 104.291 109.335 104.922 109.335C105.573 109.335 105.943 109.047 105.943 108.572C105.943 107.462 103.56 108.294 103.56 106.857C103.56 106.252 104.101 105.806 104.912 105.806C105.693 105.806 106.253 106.183 106.253 106.837H105.863C105.863 106.381 105.462 106.123 104.912 106.123C104.371 106.123 103.96 106.381 103.96 106.817C103.96 107.898 106.354 107.065 106.354 108.552C106.354 109.206 105.823 109.652 104.922 109.652C104.04 109.652 103.51 109.236 103.51 108.552H103.9Z" fill="black"/>
<path d="M104.932 109.751C104.001 109.751 103.42 109.295 103.42 108.552V108.453H104.001V108.552C104.001 108.978 104.351 109.236 104.932 109.236C105.523 109.236 105.863 108.988 105.863 108.572C105.863 108.165 105.483 108.066 104.862 107.947C104.241 107.838 103.48 107.699 103.48 106.847C103.48 106.173 104.071 105.707 104.922 105.707C105.793 105.707 106.364 106.153 106.364 106.837V106.936H105.783V106.837C105.783 106.381 105.343 106.222 104.932 106.222C104.411 106.222 104.081 106.46 104.081 106.817C104.081 107.214 104.451 107.303 105.052 107.412C105.683 107.521 106.474 107.67 106.474 108.552C106.454 109.285 105.853 109.751 104.932 109.751ZM103.62 108.651C103.67 109.226 104.151 109.553 104.932 109.553C105.753 109.553 106.264 109.166 106.264 108.552C106.264 107.828 105.653 107.719 105.002 107.6C104.441 107.501 103.871 107.392 103.871 106.817C103.871 106.341 104.291 106.024 104.922 106.024C105.513 106.024 105.913 106.302 105.963 106.738H106.154C106.104 106.222 105.633 105.905 104.912 105.905C104.181 105.905 103.66 106.292 103.66 106.857C103.66 107.541 104.251 107.65 104.882 107.769C105.453 107.868 106.043 107.977 106.043 108.582C106.043 109.117 105.623 109.444 104.922 109.444C104.281 109.444 103.851 109.137 103.8 108.661H103.62V108.651Z" fill="black"/>
<path d="M39.2359 30.4742C38.8783 30.7417 36.1987 33.3326 34.6821 34.8491C32.9854 31.5444 30.127 28.8662 26.4647 27.6158C22.0897 26.1866 17.177 26.9906 13.516 29.8477C12.3544 30.7417 6.55023 36.4571 5.20978 38.1539C-1.66723 46.4601 1.72758 58.961 13.0683 60.9253L3.95942 69.5892C4.85215 70.6607 7.08533 70.9283 9.04962 70.9283C1.99648 77.9827 -1.30826 80.7524 0.477213 85.3962C2.44284 89.95 9.1397 92.0944 15.0339 92.452C20.2142 92.7196 27.0011 91.2017 30.841 88.5221C39.2359 82.2716 42.6294 76.0198 39.0571 70.2143C37.0928 67.1785 34.4132 65.6606 30.6621 65.0354C26.1971 64.4102 17.981 64.8566 14.6763 64.8566C13.8723 64.7679 11.1927 64.589 10.5675 63.9625L13.8723 61.0154C17.1757 61.3717 21.0168 60.8366 23.6063 59.3187C25.6607 58.3359 32.2688 51.8165 33.5192 50.031C36.8239 45.7448 37.0914 40.0294 34.9483 35.4743C37.0914 34.5802 39.6823 35.028 41.379 36.9035L47.452 30.7417C45.2202 28.4185 41.6479 28.3298 39.2359 30.4742ZM18.9638 70.7508C21.9109 70.8395 25.0355 70.9283 27.8051 72.0012C32.2701 73.6979 35.5749 78.7881 34.0556 83.9684C29.9482 86.0227 23.3388 86.738 18.4274 86.1115C10.4788 85.0399 3.42431 80.1285 7.17407 73.5191L9.9437 70.9296C12.6232 70.9283 16.2843 70.7508 18.9638 70.7508ZM29.0555 53.5132C22.5361 56.5504 13.6948 54.9424 9.94504 49.1383C7.26549 45.1196 7.08668 39.6718 9.58741 34.5816C15.2141 31.7232 21.1083 33.1524 25.2156 36.6346C29.7694 40.6533 32.0927 47.2627 29.0555 53.5132Z" fill="black"/>
<path d="M103.137 16.1178C99.8267 11.5775 94.2847 8.65188 88.7428 8.65188C84.0478 8.57525 79.9687 10.7291 75.8116 14.4237C69.8851 20.3502 66.4983 23.4304 65.8826 30.5884C65.0369 41.0552 73.1952 50.2931 83.4321 50.2931C88.0504 50.3698 92.6687 48.3692 96.5945 44.4433C101.983 39.0546 105.215 36.3616 106.292 29.7427C106.909 25.2777 106.062 20.3515 103.137 16.1178ZM98.5185 41.8283C89.3585 47.7547 78.5839 44.9824 73.4265 35.9018C70.193 30.1286 70.271 22.816 74.0422 16.7362C82.8929 11.1177 94.2081 14.3498 99.0576 23.3565C102.368 29.3582 101.905 36.2083 98.5185 41.8283Z" fill="black"/>
<path d="M61.559 49.1179C58.8808 52.869 53.0753 59.2082 49.9494 60.2811L49.6818 60.1023L71.0255 0H57.7191V0.982815L63.6133 1.3391L44.0552 55.9048C43.6088 57.0664 41.6445 62.7818 41.6445 63.3169C41.6445 64.4786 42.5373 65.3713 44.1453 65.3713C50.4858 65.3713 59.0596 55.7273 62.2742 49.653L61.559 49.1179Z" fill="black"/>
<path d="M102.474 56.4575C101.277 56.4575 99.5578 57.1311 99.5578 59.5229C99.5578 62.4405 101.353 62.5897 103.446 63.0387C103.97 63.1893 104.194 64.835 104.194 66.6299C104.194 73.6615 96.4897 87.7221 88.5613 87.7221C84.8962 87.7221 83.8489 86.3009 82.577 83.9078C88.7118 78.2986 94.9193 69.2476 94.9193 62.591C94.9193 59.5982 94.0225 57.1311 91.4788 57.1311C86.0188 57.1311 77.6414 69.8459 77.6414 81.0655C77.6414 83.1602 77.7167 84.8798 78.2397 86.4502C76.2956 87.9466 75.0976 88.6202 73.4533 88.6202C69.3392 88.6202 66.7215 86.6008 66.7215 82.0376C66.7215 76.4298 72.4813 68.9477 76.6693 63.7123C78.3903 61.5423 80.0346 59.2997 81.7555 56.9805L81.3817 56.4575C80.5589 56.8313 77.4169 56.8313 75.6973 56.8313H69.116C63.2823 56.8313 59.542 62.6663 59.542 65.8823C59.542 68.6493 60.3648 71.193 62.6088 71.193C64.1038 71.193 65.2265 69.9964 65.2265 68.8751C65.2265 67.9017 64.7774 66.7804 63.5055 66.7804C62.9072 66.7804 62.3089 66.9283 61.7106 66.9283C61.4861 66.9283 60.5893 67.0789 60.5893 65.807C60.5893 63.8629 62.8333 61.6929 67.0966 61.6929H77.0444C69.8636 69.6953 61.1123 77.3252 61.1123 84.2062C61.1123 90.1166 64.9266 92.7343 70.0128 92.7343C72.855 92.7343 75.099 90.7149 78.5395 87.2743C80.1112 90.7902 83.1027 92.7343 86.2434 92.7343C96.1159 92.7343 105.765 75.9041 105.765 64.761C105.765 59.0752 104.493 56.4575 102.474 56.4575ZM80.9327 75.8288C80.9327 69.4721 83.7749 61.8422 87.9643 61.8422C90.133 61.8422 90.4314 64.3093 90.4314 66.5546C90.4314 71.6407 86.8417 78.4478 82.1293 83.1602C81.1572 80.9916 80.9327 78.4478 80.9327 75.8288Z" fill="black"/>
<path d="M49.6532 90.7185C51.8801 90.7185 53.6853 88.9133 53.6853 86.6864C53.6853 84.4595 51.8801 82.6543 49.6532 82.6543C47.4263 82.6543 45.6211 84.4595 45.6211 86.6864C45.6211 88.9133 47.4263 90.7185 49.6532 90.7185Z" fill="black"/>
<path d="M11.0199 6.57989C12.9586 5.37389 14.9027 5.03105 16.9638 5.53389C18.7345 5.96547 20.2175 6.92274 21.4073 7.69178C21.5418 7.77917 21.6722 7.86253 21.7972 7.94185C22.8621 8.61947 26.1023 10.6832 30.0846 11.5531C31.3538 11.8301 32.5961 11.9686 33.8102 11.9686C36.8971 11.9686 39.7985 11.0731 42.4699 9.29171L42.2858 9.00534L42.4847 9.2823C44.605 7.76304 45.9844 5.55406 46.0422 5.46129L45.2033 4.94232C45.1898 4.96383 43.8709 7.07063 41.9214 8.47158C39.9827 9.67757 38.0372 10.0204 35.9761 9.51758C34.2041 9.08466 32.7225 8.12873 31.5326 7.35969C31.3982 7.2723 31.2691 7.18894 31.1441 7.10962C30.0792 6.432 26.839 4.36822 22.8567 3.49835C18.3607 2.51688 14.1928 3.27651 10.4713 5.75976L10.6555 6.04614L10.4579 5.76917C8.33764 7.28843 6.9582 9.49742 6.90039 9.59018L7.73935 10.1092C7.75145 10.089 9.07173 7.98084 11.0199 6.57989Z" fill="black"/>
</svg>
